<svg version="1.1" viewBox="0 0 1320 3892" xmlns="http://www.w3.org/2000/svg" xmlns:xlink="http://www.w3.org/1999/xlink">
<!--made in inkscape-->
<defs>
<linearGradient id="g">
<stop stop-color="#1f1f1f" offset="0"/>
<stop stop-color="#fff" offset="1"/>
</linearGradient>
<linearGradient id="j">
<stop stop-color="#d8d8d8" offset="0"/>
<stop stop-color="#171717" offset="1"/>
</linearGradient>
<linearGradient id="l">
<stop stop-color="#6b6b6b" offset="0"/>
<stop stop-color="#fff" offset=".1373"/>
<stop offset=".48"/>
<stop stop-color="#fff" offset=".6933"/>
<stop offset=".888"/>
<stop offset="1"/>
</linearGradient>
<radialGradient id="y" cx="-58.93" cy="270.5" r="41.28" gradientTransform="matrix(12.12 -12.39 11.58 11.58 -1758 -210.6)" gradientUnits="userSpaceOnUse" xlink:href="#l"/>
<linearGradient id="ae" x1="54.82" x2="54.82" y1="219" y2="221.4" gradientTransform="matrix(15.11 0 0 15.39 -203.6 -343.7)" gradientUnits="userSpaceOnUse">
<stop stop-color="#fff" offset="0"/>
<stop stop-color="#bfbfbf" offset=".1495"/>
<stop stop-color="#a6a6a6" offset=".2801"/>
<stop stop-color="#b7b7b7" offset=".682"/>
<stop stop-color="#8b8b8b" offset=".8485"/>
<stop stop-color="#303030" offset="1"/>
</linearGradient>
<radialGradient id="ac" cx="56.27" cy="169.3" r="9.705" gradientTransform="matrix(15.12 0 0 15.12 -190.5 -312)" gradientUnits="userSpaceOnUse">
<stop stop-color="#ff0b0b" offset="0"/>
<stop stop-color="#ff2c2c" stop-opacity=".6509" offset=".4011"/>
<stop stop-color="#ff1818" stop-opacity=".3527" offset=".7228"/>
<stop stop-color="#ff1616" stop-opacity=".2627" offset=".7791"/>
<stop stop-color="#ff1515" stop-opacity=".1961" offset=".8933"/>
<stop stop-color="#ff1515" stop-opacity=".02182" offset="1"/>
</radialGradient>
<linearGradient id="k">
<stop stop-color="#847878" offset="0"/>
<stop stop-color="#361111" offset=".08369"/>
<stop offset=".4759"/>
<stop stop-color="#0b0a0a" stop-opacity=".1608" offset=".8818"/>
<stop stop-color="#763e3e" stop-opacity=".5098" offset=".9748"/>
<stop stop-color="#321111" offset="1"/>
</linearGradient>
<radialGradient id="v" cx="171.7" cy="576.8" r="134.3" gradientTransform="matrix(1.677 -.01045 .006258 1.004 -115.6 .08227)" gradientUnits="userSpaceOnUse">
<stop stop-color="#e7e7e7" offset="0"/>
<stop stop-color="#4a4a4a" offset=".6699"/>
<stop stop-color="#757575" offset=".8755"/>
<stop stop-color="#fff" offset="1"/>
</radialGradient>
<radialGradient id="u" cx="174.8" cy="581.2" r="150" gradientTransform="matrix(.8939 0 2.308e-8 .7281 18.87 119.9)" gradientUnits="userSpaceOnUse">
<stop offset="0"/>
<stop stop-color="#0e0d0d" offset=".08369"/>
<stop offset=".4759"/>
<stop stop-color="#958b8b" offset=".8532"/>
<stop stop-color="#151313" offset=".9462"/>
<stop stop-color="#0d0b0b" offset="1"/>
</radialGradient>
<radialGradient id="t" cx="175.9" cy="584.1" r="134.3" gradientTransform="matrix(1.652 .01407 -.008851 1.039 -102.5 -24.34)" gradientUnits="userSpaceOnUse">
<stop stop-color="#e7e7e7" offset="0"/>
<stop stop-color="#4a4a4a" offset=".6699"/>
<stop stop-color="#757575" offset=".8755"/>
<stop stop-color="#f2f2f2" offset="1"/>
</radialGradient>
<radialGradient id="s" cx="172.3" cy="580.9" r="134.3" gradientTransform="matrix(.9329 .002634 -.002659 .942 17.1 30.91)" gradientUnits="userSpaceOnUse">
<stop offset="0"/>
<stop stop-color="#140000" offset=".688"/>
<stop stop-color="#383232" offset=".9515"/>
<stop offset="1"/>
</radialGradient>
<radialGradient id="r" cx="176.1" cy="576.4" r="94.55" gradientTransform="matrix(1.089 -.003777 .0042 1.211 -18.45 -122.2)" gradientUnits="userSpaceOnUse">
<stop offset="0"/>
<stop stop-color="#494545" stop-opacity=".9647" offset=".9064"/>
<stop stop-color="#6c6262" stop-opacity=".9569" offset=".9274"/>
<stop stop-color="#090101" offset="1"/>
</radialGradient>
<radialGradient id="q" cx="174.8" cy="581.2" r="150" gradientTransform="matrix(.8793 0 2e-8 .7767 18.94 151.6)" gradientUnits="userSpaceOnUse">
<stop offset="0"/>
<stop stop-color="#151313" offset=".8532"/>
<stop offset=".9462"/>
<stop stop-color="#0d0b0b" offset="1"/>
</radialGradient>
<linearGradient id="af" x1="-387.1" x2="-377.1" y1="7.576" y2="17.26" gradientTransform="matrix(4 0 0 4 1544 -33.69)" gradientUnits="userSpaceOnUse">
<stop stop-color="#fff" offset="0"/>
<stop stop-color="#fff" stop-opacity="0" offset="1"/>
</linearGradient>
<linearGradient id="ah" x1="-384.8" x2="-381.4" y1="9.782" y2="10.22" gradientTransform="matrix(5.326 0 0 4 2064 -33.69)" gradientUnits="userSpaceOnUse">
<stop stop-color="#fff" stop-opacity=".502" offset="0"/>
<stop stop-opacity=".7236" offset=".6337"/>
<stop stop-color="#fff" stop-opacity=".06909" offset="1"/>
</linearGradient>
<linearGradient id="ag" x1="318" x2="1023" y1="-3765" y2="-3268" gradientTransform="translate(-40,40)" gradientUnits="userSpaceOnUse" xlink:href="#l"/>
<linearGradient id="ak" x1="629.5" x2="721" y1="2510" y2="2122" gradientTransform="translate(-41 -45.47)" gradientUnits="userSpaceOnUse" xlink:href="#k"/>
<linearGradient id="aj" x1="629.5" x2="721" y1="2510" y2="2122" gradientTransform="matrix(1.321 0 0 1.321 -265.7 -780.4)" gradientUnits="userSpaceOnUse" xlink:href="#k"/>
<radialGradient id="x" cx="56.27" cy="169.3" r="9.705" gradientTransform="matrix(19.54 0 0 19.54 -439.2 -1061)" gradientUnits="userSpaceOnUse">
<stop stop-color="#ff0b0b" offset="0"/>
<stop stop-color="#ff2c2c" stop-opacity=".3059" offset=".4011"/>
<stop stop-color="#ff1d1d" stop-opacity=".1964" offset=".5599"/>
<stop stop-color="#ff1818" stop-opacity=".08" offset=".7841"/>
<stop stop-color="#ff1515" stop-opacity=".1164" offset="1"/>
</radialGradient>
<filter id="h" x="-.25" y="-.25" width="1.5" height="1.5" color-interpolation-filters="sRGB"><feGaussianBlur stdDeviation="12"/></filter>
<filter id="f" x="-.12" y="-.12" width="1.25" height="1.25" color-interpolation-filters="sRGB"><feGaussianBlur stdDeviation="2"/></filter>
<filter id="av" x="-.1531" y="-.5555" width="1.306" height="2.111" color-interpolation-filters="sRGB"><feGaussianBlur stdDeviation="6.9439681"/></filter>
<filter id="ar" x="-.002887" y="-.01423" width="1.006" height="1.028" color-interpolation-filters="sRGB"><feGaussianBlur stdDeviation="1.275"/></filter>
<filter id="aq" x="-.00413" y="-.01097" width="1.008" height="1.022" color-interpolation-filters="sRGB"><feGaussianBlur stdDeviation="0.056794773"/></filter>
<filter id="au" x="-.1278" y="-.277" width="1.256" height="1.554" color-interpolation-filters="sRGB"><feGaussianBlur stdDeviation="0.6925"/></filter>
<filter id="at" x="-.1166" y="-.2374" width="1.233" height="1.475" color-interpolation-filters="sRGB"><feGaussianBlur stdDeviation="0.6925"/></filter>
<filter id="as" x="-.1278" y="-.277" width="1.256" height="1.554" color-interpolation-filters="sRGB"><feGaussianBlur stdDeviation="0.6925"/></filter>
<linearGradient id="ai" x1="700" x2="700" y1="2557" y2="2098" gradientTransform="translate(-40 -40)" gradientUnits="userSpaceOnUse">
<stop stop-color="#2e161f" offset="0"/>
<stop stop-color="#2e161f" stop-opacity=".745" offset=".2152"/>
<stop stop-color="#2e161f" stop-opacity="0" offset="1"/>
</linearGradient>
<linearGradient id="al" x1="-52.65" x2="-52.68" y1="795.8" y2="807.8" gradientTransform="matrix(3.981 0 0 3.667 320.2 146)" gradientUnits="userSpaceOnUse">
<stop stop-color="#b4b4b4" offset="0"/>
<stop stop-color="#adadad" offset=".03795"/>
<stop stop-color="#434343" offset=".06615"/>
<stop stop-color="#383838" offset=".09036"/>
<stop stop-color="#767676" offset=".1747"/>
<stop stop-color="#838383" offset=".3556"/>
<stop stop-color="#5a5a5a" offset=".4323"/>
<stop stop-color="#565656" offset=".4765"/>
<stop stop-color="#656565" stop-opacity=".9961" offset=".5304"/>
<stop stop-color="#c3c3c3" stop-opacity=".9922" offset=".6755"/>
<stop stop-color="#fff" stop-opacity=".9907" offset=".8469"/>
<stop stop-color="#e7e7e7" stop-opacity=".9922" offset=".8822"/>
<stop stop-color="#e7e7e7" stop-opacity=".9961" offset=".9304"/>
<stop stop-color="#b4b4b4" offset="1"/>
</linearGradient>
<radialGradient id="w" cx="-30.87" cy="793" r="3" gradientTransform="matrix(-3.25 5.758 -5.377 -3.034 4234 5658)" gradientUnits="userSpaceOnUse">
<stop stop-color="#030303" offset="0"/>
<stop stop-opacity=".9964" offset=".6666"/>
<stop stop-color="#6f6f6f" stop-opacity=".9961" offset=".7632"/>
<stop stop-color="#f2f2f2" offset="1"/>
</radialGradient>
<radialGradient id="ab" cx="294.8" cy="78.56" r="3.157" gradientTransform="matrix(2.009 0 0 1.526 548.7 182.1)" gradientUnits="userSpaceOnUse" xlink:href="#j"/>
<linearGradient id="ao" x1="308" x2="302" y1="1871" y2="1878" gradientTransform="matrix(.75 0 0 .75 64.5 462.5)" gradientUnits="userSpaceOnUse" xlink:href="#g"/>
<linearGradient id="an" x1="106.5" x2="98.73" y1="4836" y2="4856" gradientTransform="scale(1.925 .5196)" gradientUnits="userSpaceOnUse" xlink:href="#g"/>
<linearGradient id="am" x1="18" x2="17" y1="2489" y2="2498" gradientUnits="userSpaceOnUse" xlink:href="#g"/>
<radialGradient id="aa" cx="294.8" cy="78.56" r="3.157" gradientTransform="matrix(2.009 0 0 1.526 -191.3 1642)" gradientUnits="userSpaceOnUse" xlink:href="#j"/>
<radialGradient id="z" cx="56.27" cy="169.3" r="9.705" gradientTransform="matrix(5.142 0 0 5.142 370.7 1377)" gradientUnits="userSpaceOnUse">
<stop stop-color="#fff4a8" offset="0"/>
<stop stop-color="#ffe184" offset=".2471"/>
<stop stop-color="#ffc045" offset=".4152"/>
<stop stop-color="#ffa919" offset="1"/>
</radialGradient>
<filter id="ax" x="-.024" y="-.024" width="1.048" height="1.048" color-interpolation-filters="sRGB"><feGaussianBlur stdDeviation="1"/></filter>
<filter id="aw" x="-.02057" y="-.0288" width="1.041" height="1.058" color-interpolation-filters="sRGB"><feGaussianBlur stdDeviation="1.8"/></filter>
</defs>
<rect width="1320" height="3892" fill="#0d0b0b"/>
<g>
<g>
<path d="m36 36v3820l-36 36.03v-3892z" fill="#494949"/>
<path d="m36 36-36-36h8z" fill="url(#af)" />
<path d="m36 36-28-36h28z" fill="url(#ah)" opacity=".368"/>
<path d="m12 0h1308l-36 36h-1248z" fill="#dadada"/>
</g>
<path d="m0 3892h1320l-36-36h-1248z" fill="#f2f2f2" fill-opacity=".9783"/>
<path d="m1284 36v3820l36 36.09v-3892z" fill="#404040"/>
</g>
<g transform="matrix(4 0 0 4 -40 -56)">
<ellipse cx="172" cy="606" rx="151" ry="120" fill="url(#q)"/>
<ellipse cx="175" cy="545" rx="156" ry="109" fill="url(#u)"/>
<circle cx="175" cy="577" r="134" fill="url(#v)"/>
<circle cx="175" cy="577" r="132" fill="url(#t)"/>
<circle cx="175" cy="577" r="124" fill="url(#s)"/>
<circle cx="175" cy="577" r="118" fill="url(#r)"/>
<path d="m175 459a118.3 118.3 0 0 0-118.3 118.3 118.3 118.3 0 0 0 118.3 118.3 118.3 118.3 0 0 0 118.3-118.3 118.3 118.3 0 0 0-118.3-118.3zm0 6.303a112 112 0 0 1 112 112 112 112 0 0 1-112 112 112 112 0 0 1-112-112 112 112 0 0 1 112-112z"/>
<circle cx="175" cy="577" r="105" fill="#090000"/>
</g>
<g>
<ellipse cx="660" cy="2192" rx="371" ry="250" fill="url(#ai)"/>
<circle cx="660" cy="2250" r="206" fill="url(#aj)" opacity=".4"/>
<circle cx="660" cy="2250" r="378" fill="#160404" opacity=".6"/>
<circle cx="660" cy="2250" r="190" fill="url(#x)" opacity=".6"/>
<circle cx="660" cy="2250" r="156" fill="url(#ak)"/>
<circle cx="660" cy="2250" r="147" fill="url(#ac)"/>
<circle cx="660" cy="2250" r="50" fill="url(#z)" filter="url(#ax)"/>
<path d="m770 2452c78.11-25.44 109.2-40.6 145-65h65c-24.81 62.88-71.82 106.9-120 150z" fill="#5c3c38" filter="url(#aw)"/>
<g transform="translate(-19.12 908.5)">
<path d="m627.4 1558 12.55 0.75-0.4483 5.25-12.55-0.75z" fill="#6a422c" filter="url(#au)"/>
<path id="d" d="m642 1575h14v7h-14.25z" fill="#6a422c" filter="url(#at)"/>
<use transform="translate(1.125,-9.5)" xlink:href="#d"/>
<use transform="translate(18.12 -8.5)" xlink:href="#d"/>
<use transform="translate(17.12 -17.5)" xlink:href="#d"/>
<use id="i" transform="rotate(4.096 772.8 1324)" xlink:href="#d"/>
<use transform="translate(-17 -2.009)" xlink:href="#i"/>
<use transform="translate(-20 6.991)" xlink:href="#i"/>
<use transform="translate(-56.88 -4.5)" xlink:href="#d"/>
<use transform="rotate(12.88 529.6 1059)" xlink:href="#d"/>
<use transform="translate(52.12 -13.5)" xlink:href="#d"/>
<use transform="translate(69.12 -15.5)" xlink:href="#d"/>
<use transform="translate(54.12 -3.5)" xlink:href="#d"/>
<path id="e" d="m741.1 1559-12.55 0.75 0.4483 5.25 12.55-0.75z" fill="#6a422c" filter="url(#as)"/>
<use transform="translate(-1,-9)" xlink:href="#e"/>
<use transform="translate(22,2)" xlink:href="#e"/>
<use transform="translate(26,8)" xlink:href="#e"/>
<use transform="translate(5,7)" xlink:href="#e"/>
<use transform="translate(8,13)" xlink:href="#e"/>
<use transform="translate(-10,15)" xlink:href="#e"/>
<use id="o" transform="rotate(48.89 619 1202)" xlink:href="#d"/>
<use transform="matrix(-1 0 0 1 1328 -14)" xlink:href="#o"/>
</g>
</g>
<g>
<g id="m">
<path d="m428.5 2027c-75 70-100 20-30-45 75-70 100-20 30 45z" fill="#fff" fill-opacity=".2157" filter="url(#h)"/>
<path d="m523.5 1902c50.5-29.15 165-35 215-25 90 18 70 73.85-20 60-20-3.077-62-10-70 10-10.41 26.02-45 20-85 30-65 16.25-85-49.02-40-75z" fill="#fff" fill-opacity=".1647" filter="url(#h)"/>
<path d="m893.5 2007c-78.32-66.27-51.63-103.2 20-40 85 75 45 95-20 40z" fill="#fff" fill-opacity=".2157" filter="url(#h)"/>
<path d="m373.5 2032c20.48-27.07 51.02-45.36 80-65l5 20c-27.75 17.31-55.29 35.15-80 60z" fill="#fff" filter="url(#f)" opacity=".75"/>
<path d="m558.5 1917c35-15 86.76-31.42 190-15v15c-24.53-3.526-135-15-135 20-13.61 2.589-47.53 7.487-55 15z" fill="#fff" filter="url(#f)" opacity=".76"/>
<path d="m868.5 1957c20 9.938 45 25 65 50v15c-20-25-45-35-65-45z" fill="#fff" filter="url(#f)" opacity=".76"/>
</g>
<g id="ap" transform="matrix(.9494 0 0 1 -11.14 -40)">
<path id="ad" d="m480 2137c-70 0-65-30 5-30 75 0 70 30-5 30z" fill="#fff" fill-opacity=".2353" filter="url(#av)"/>
<use transform="translate(445)" xlink:href="#ad"/>
<path id="p" d="m450 2117h65v10h-65z" fill="#fff" filter="url(#f)" opacity=".55"/>
<use transform="translate(445)" xlink:href="#p"/>
</g>
<use transform="matrix(.219 0 0 .3291 515.5 1504)" xlink:href="#ap"/>
<use transform="matrix(.4423 0 0 .3658 368 1375)" opacity=".7" xlink:href="#m"/>
<use transform="matrix(.2547 0 0 .1928 491.9 1779)" opacity=".6" xlink:href="#m"/>
</g>
<g>
<rect x="130" y="117" width="1060" height="215" fill="#5c98c9" filter="url(#ar)"/>
<rect x="678" y="128" width="500" height="192" fill="#1b1717" filter="url(#aq)"/>
<use transform="translate(164)" xlink:href="#n"/>
<use transform="translate(82)" xlink:href="#n"/>
<path id="n" d="m824 158c-29-1.9e-4 -37.03 29-37.03 66.01s8.032 65.99 37.03 65.99c29 1.5e-4 36.97-31 36.97-66s-7.968-66-36.97-66zm0 8c25 1.9e-4 27.97 34 27.97 58s-2.968 58-27.97 58c-25-1.5e-4 -28.03-34-28.03-58s3.032-58 28.03-58zm0 8c-11.05 0-16.57 9.825-18 25.5-1.356 14.86-1.395 30.22 0 46 1.386 15.68 6.954 26.5 18 26.5 11.05 0 16.69-10.81 18-26.5 1.351-16.24 1.23-31.55 0-46-1.335-15.68-6.954-25.5-18-25.5zm0 9c7 0 8.155 6.501 8 19v41c-4e-5 12.43-1 20-8 20-7 0-8-7.574-8-20-0.0407-14.04-0.0437-27.74 0-41-0.1546-12.43 1-19 8-19z" fill="#fefefe" opacity=".8"/>
<g fill="#fff">
<path d="m743 158c-19.88 0-36 16.12-36 36v14c0 19.88 16.12 36.01 36 36 3.806-3e-3 7 0 10-2 0 15-4 22-10 22-7 0-11.72-16.77-12-16.68l-24 7.681c0 19 16.45 35 36 35 19.88 0 36-16.12 36-36l-0.1111-59.81c-0.1602-19.88-16.01-36.19-35.89-36.19zm0 8c15.31 0 28 13.42 28 30l-0.2812 55.98c-0.1943 16.58-12.41 30.02-27.72 30.02-12.76 0-22.96-9.346-26.46-22.04l9.707-2.988c2.453 8.47 8.397 14.46 16.69 14.46 11.05 0 18.12-10.64 18.06-23.6v-21.83c-1 4-8 10-18 10-15.31 9.5e-4 -28-13.42-28-30v-10c0-16.58 12.69-30 28-30zm0 8c-11.05 0-18 10.51-18 23.48v6.348c0 12.97 6.892 23.6 17.94 23.6s18.12-10.64 18.06-23.6l-0.0624-6.225c-0.05587-12.97-6.892-23.6-17.94-23.6zm0 8c6.561 0 8 7.917 8 17.69v2.615c0 9.777-1.439 17.69-8 17.69-6.561 0-8-7.915-8-17.69v-2.615c0-9.777 1.439-17.69 8-17.69z" opacity=".8"/>
<path d="m580 161v126h61v-29h-31.99v-97h-22.01zm7 7h15.01v90h-0.01v7h32v15h-47v-15z" opacity=".8"/>
<path d="m515 161-22 126h25l3.316-19h13.37l3.316 19h25l-22-126h-19zm5.777 7h14.45l19.55 112h-11.01l-3.354-19h-24.82l-3.354 19h-11.01zm7.223 22.67-11 62.33h22zm0 39.06 2.842 16.28h-5.684z" opacity=".8"/>
<path d="m410 161v126h29v-58.5h13v58.5h30v-126h-30v46.5h-13v-46.5h-22zm7 7h15v46.5h27v-46.5h16v112h-16v-58.5h-27v58.5h-15z" opacity=".8"/>
</g>
</g>
<g>
<rect x="36" y="3028" width="1248" height="36" fill="url(#ae)"/>
<rect id="b" x="35" y="3064" width="1250" height="44" fill="url(#al)"/>
<g>
<use transform="translate(0,44)" xlink:href="#b"/>
<use transform="translate(0,88)" xlink:href="#b"/>
<use transform="translate(0,132)" xlink:href="#b"/>
<use transform="translate(0,176)" xlink:href="#b"/>
<use transform="translate(0,220)" xlink:href="#b"/>
<use transform="translate(0,264)" xlink:href="#b"/>
<use transform="translate(0,308)" xlink:href="#b"/>
<use transform="translate(0,352)" xlink:href="#b"/>
<use transform="translate(0,396)" xlink:href="#b"/>
<use transform="translate(0,440)" xlink:href="#b"/>
<use transform="translate(0,484)" xlink:href="#b"/>
<use transform="translate(0,528)" xlink:href="#b"/>
<use transform="translate(0,572)" xlink:href="#b"/>
<use transform="translate(0,616)" xlink:href="#b"/>
<use transform="translate(0,660)" xlink:href="#b"/>
<use transform="translate(0,704)" xlink:href="#b"/>
<use transform="translate(0,748)" xlink:href="#b"/>
</g>
<rect transform="scale(1,-1)" x="32" y="-3856" width="1256" height="792" fill="url(#ag)" opacity=".03"/>
<rect x="32" y="3064" width="1256" height="792" fill="url(#y)" opacity=".05"/>
<g id="c">
<circle id="a" cx="67" cy="3081" r="12" fill="url(#w)"/>
<use transform="translate(56)" xlink:href="#a"/>
<use transform="translate(112)" xlink:href="#a"/>
<use transform="translate(168)" xlink:href="#a"/>
<use transform="translate(224)" xlink:href="#a"/>
<use transform="translate(280)" xlink:href="#a"/>
<use transform="translate(336)" xlink:href="#a"/>
<use transform="translate(392)" xlink:href="#a"/>
<use transform="translate(448)" xlink:href="#a"/>
<use transform="translate(504)" xlink:href="#a"/>
<use transform="translate(560)" xlink:href="#a"/>
<use transform="translate(616)" xlink:href="#a"/>
<use transform="translate(672)" xlink:href="#a"/>
<use transform="translate(728)" xlink:href="#a"/>
<use transform="translate(784)" xlink:href="#a"/>
<use transform="translate(840)" xlink:href="#a"/>
<use transform="translate(896)" xlink:href="#a"/>
<use transform="translate(952)" xlink:href="#a"/>
<use transform="translate(1008)" xlink:href="#a"/>
<use transform="translate(1064)" xlink:href="#a"/>
<use transform="translate(1120)" xlink:href="#a"/>
<use transform="translate(1176)" xlink:href="#a"/>
</g>
<use transform="translate(0,44)" xlink:href="#c"/>
<use transform="translate(0,88)" xlink:href="#c"/>
<use transform="translate(0,132)" xlink:href="#c"/>
<use transform="translate(0,176)" xlink:href="#c"/>
<use transform="translate(0,220)" xlink:href="#c"/>
<use transform="translate(0,264)" xlink:href="#c"/>
<use transform="translate(0,308)" xlink:href="#c"/>
<use transform="translate(0,352)" xlink:href="#c"/>
<use transform="translate(0,396)" xlink:href="#c"/>
<use transform="translate(0,440)" xlink:href="#c"/>
<use transform="translate(0,484)" xlink:href="#c"/>
<use transform="translate(0,528)" xlink:href="#c"/>
<use transform="translate(0,572)" xlink:href="#c"/>
<use transform="translate(0,616)" xlink:href="#c"/>
<use transform="translate(0,660)" xlink:href="#c"/>
<use transform="translate(0,704)" xlink:href="#c"/>
<use transform="translate(0,748)" xlink:href="#c"/>
</g>
<g>
<path d="m295 1870c6 12 3 23 0 34 2-14 5-19-1-33z" fill="#fff" fill-opacity=".5"/>
<path d="m0 2487 36 5c-11 5-28.84-0.01-36-1z" fill="url(#am)"/>
<ellipse cx="1141" cy="302" rx="6" ry="4.8" fill="url(#ab)" opacity=".35"/>
<circle cx="294" cy="1868" r="3" fill="url(#ao)" opacity=".7"/>
<path d="m191 2511c10 5 19 1 39 6-20 0-33 7-39-6z" fill="url(#an)" opacity=".7"/>
<ellipse cx="401" cy="1762" rx="6" ry="4.8" fill="url(#aa)" opacity=".35"/>
</g>
</svg>