<?xml version="1.0" encoding="UTF-8" standalone="no"?>
<!-- Created with Inkscape (http://www.inkscape.org/) -->

<svg
   width="141.93599mm"
   height="55.131805mm"
   viewBox="0 0 141.93599 55.131805"
   version="1.1"
   id="svg5"
   sodipodi:docname="Google Bard 2023 (Wordmark).svg"
   inkscape:version="1.1.2 (b8e25be833, 2022-02-05)"
   xmlns:inkscape="http://www.inkscape.org/namespaces/inkscape"
   xmlns:sodipodi="http://sodipodi.sourceforge.net/DTD/sodipodi-0.dtd"
   xmlns="http://www.w3.org/2000/svg"
   xmlns:svg="http://www.w3.org/2000/svg">
  <sodipodi:namedview
     id="namedview7"
     pagecolor="#ffffff"
     bordercolor="#666666"
     borderopacity="1.0"
     inkscape:pageshadow="2"
     inkscape:pageopacity="0.0"
     inkscape:pagecheckerboard="0"
     inkscape:document-units="mm"
     showgrid="false"
     inkscape:zoom="0.64052329"
     inkscape:cx="367.66813"
     inkscape:cy="162.36724"
     inkscape:window-width="1920"
     inkscape:window-height="1017"
     inkscape:window-x="-8"
     inkscape:window-y="-8"
     inkscape:window-maximized="1"
     inkscape:current-layer="layer1" />
  <defs
     id="defs2">
    <clipPath
       id="clip0_5885_393289">
      <rect
         width="126"
         height="28"
         fill="#ffffff"
         id="rect832"
         x="0"
         y="0" />
    </clipPath>
  </defs>
  <g
     inkscape:label="Layer 1"
     inkscape:groupmode="layer"
     id="layer1"
     transform="translate(-34.373968,-65.046369)">
    <g
       style="fill:none"
       id="g847"
       transform="matrix(3.4234852,0,0,3.4234852,32.374653,53.926889)">
      <g
         clip-path="url(#clip0_5885_393289)"
         id="g830">
        <path
           d="M 0.584,19 V 3.248 h 5.698 c 1.24667,0 2.31733,0.41067 3.212,1.232 0.8947,0.80667 1.342,1.826 1.342,3.058 0,1.55467 -0.7113,2.6473 -2.134,3.278 v 0.088 c 0.80667,0.264 1.452,0.726 1.936,1.386 0.484,0.6453 0.726,1.386 0.726,2.222 0,1.2907 -0.4693,2.3613 -1.408,3.212 C 9.04667,18.5747 7.92467,19 6.59,19 Z M 2.608,5.184 v 4.818 h 3.674 c 0.71867,0 1.32,-0.242 1.804,-0.726 C 8.57,8.77733 8.812,8.21267 8.812,7.582 8.812,6.966 8.57733,6.40867 8.108,5.91 7.63867,5.426 7.05933,5.184 6.37,5.184 Z m 0,6.71 v 5.17 h 4.07 c 0.73333,0 1.35667,-0.2567 1.87,-0.77 0.49867,-0.5133 0.748,-1.122 0.748,-1.826 0,-0.6893 -0.25667,-1.2907 -0.77,-1.804 C 8.01267,12.1507 7.36733,11.894 6.59,11.894 Z M 14.7685,15.7 c 0,0.528 0.22,0.968 0.66,1.32 0.4547,0.352 0.9827,0.528 1.584,0.528 0.8507,0 1.606,-0.3153 2.266,-0.946 0.6747,-0.6307 1.012,-1.3713 1.012,-2.222 -0.6307,-0.4987 -1.5107,-0.748 -2.64,-0.748 -0.8213,0 -1.5107,0.198 -2.068,0.594 -0.5427,0.396 -0.814,0.8873 -0.814,1.474 z m 2.618,-7.832 c 1.496,0 2.6767,0.40333 3.542,1.21 0.8653,0.792 1.298,1.8847 1.298,3.278 V 19 h -1.936 v -1.496 h -0.088 c -0.836,1.232 -1.9507,1.848 -3.344,1.848 -1.188,0 -2.1853,-0.352 -2.992,-1.056 -0.792,-0.704 -1.188,-1.584 -1.188,-2.64 0,-1.1147 0.418,-2.002 1.254,-2.662 0.8507,-0.66 1.98,-0.99 3.388,-0.99 1.2027,0 2.1927,0.22 2.97,0.66 v -0.462 c 0,-0.704 -0.2787,-1.298 -0.836,-1.782 -0.5573,-0.49867 -1.21,-0.748 -1.958,-0.748 -1.1293,0 -2.024,0.4767 -2.684,1.43 L 13.0305,9.98 c 0.9827,-1.408 2.4347,-2.112 4.356,-2.112 z M 26.5333,19 h -2.024 V 8.22 h 1.936 v 1.76 h 0.088 c 0.2054,-0.572 0.6234,-1.056 1.254,-1.452 0.6454,-0.41067 1.276,-0.616 1.892,-0.616 0.5867,0 1.0854,0.088 1.496,0.264 l -0.616,1.958 C 30.31,10.0313 29.914,9.98 29.3713,9.98 c -0.7626,0 -1.43,0.308 -2.002,0.924 -0.5573,0.616 -0.836,1.3347 -0.836,2.156 z m 10.1422,-1.496 c 0.9973,0 1.8113,-0.3593 2.442,-1.078 0.66,-0.7187 0.99,-1.6573 0.99,-2.816 0,-1.1293 -0.33,-2.0607 -0.99,-2.794 -0.6453,-0.7333 -1.4593,-1.1 -2.442,-1.1 -0.968,0 -1.782,0.3667 -2.442,1.1 -0.66,0.7333 -0.99,1.6647 -0.99,2.794 0,1.144 0.33,2.0753 0.99,2.794 0.66,0.7333 1.474,1.1 2.442,1.1 z m -0.33,1.848 c -1.408,0 -2.618,-0.5573 -3.63,-1.672 -0.9973,-1.1293 -1.496,-2.486 -1.496,-4.07 0,-1.584 0.4987,-2.9407 1.496,-4.07 1.012,-1.11467 2.222,-1.672 3.63,-1.672 0.792,0 1.5107,0.16867 2.156,0.506 0.66,0.33733 1.166,0.78467 1.518,1.342 h 0.088 L 40.0195,8.22 V 3.248 h 2.024 V 19 h -1.936 v -1.496 h -0.088 c -0.352,0.5573 -0.858,1.0047 -1.518,1.342 -0.6453,0.3373 -1.364,0.506 -2.156,0.506 z"
           fill="#5f6368"
           id="path824" />
      </g>
    </g>
  </g>
</svg>
